<svg width="65" height="34" viewBox="0 0 65 34" fill="none" xmlns="http://www.w3.org/2000/svg">
<g style="mix-blend-mode:color-dodge">
<mask id="mask0_30403_109" style="mask-type:alpha" maskUnits="userSpaceOnUse" x="0" y="0" width="65" height="34">
<g style="mix-blend-mode:lighten">
<mask id="mask1_30403_109" style="mask-type:alpha" maskUnits="userSpaceOnUse" x="0" y="0" width="65" height="34">
<rect width="65" height="34" fill="#D9D9D9"/>
</mask>
<g mask="url(#mask1_30403_109)">
<path d="M1158.8 0C1143.15 0 1143.15 14 1127.61 14C1112.07 14 1111.96 0 1096.41 0C1080.87 0 1080.76 14 1065.22 14C1049.57 14 1049.57 0 1033.91 0C1018.26 0 1018.26 14 1002.72 14C987.065 14 987.065 0 971.522 0C955.87 0 955.87 14 940.326 14C924.783 14 924.348 0 908.804 0C893.152 0 893.152 14 877.609 14C862.065 14 861.848 0 846.304 0C830.652 0 830.652 14 815.109 14C799.456 14 799.456 0 783.804 0C768.152 0 768.152 14 752.609 14C736.956 14 736.957 0 721.413 0C705.87 0 705.652 14 690 14C674.348 14 674.348 0 658.804 0C643.152 0 643.152 14 627.609 14C611.956 14 611.956 0 596.304 0C580.652 0 580.652 14 565.109 14C549.456 14 549.457 0 533.913 0C518.261 0 518.261 14 502.717 14C487.065 14 487.065 0 471.522 0C455.87 0 455.87 14 440.217 14C424.565 14 424.565 0 408.913 0C393.261 0 393.261 14 377.609 14C361.957 14 361.957 0 346.304 0C330.652 0 330.652 14 315 14C299.348 14 299.348 0 283.696 0C268.043 0 268.043 14 252.391 14C236.739 14 236.739 0 221.087 0C205.435 0 205.435 14 189.891 14C174.239 14 174.239 0 158.587 0C142.935 0 142.935 14 127.283 14C111.63 14 111.63 0 95.9783 0C80.3261 0 80.3261 14 64.6739 14C49.0217 14 49.0217 0 33.3696 0C18.1522 0 18.1522 14 2.5 14C-13.1522 14 -13.1522 0 -28.6957 0C-44.2391 0 -44.3478 14 -60 14V34H1190V14C1174.35 14 1174.35 0 1158.8 0Z" fill="white"/>
</g>
</g>
</mask>
<g mask="url(#mask0_30403_109)">
<rect width="65" height="34" fill="white"/>
</g>
</g>
</svg>
